<svg width="50" height="50" viewBox="0 0 50 50" fill="none" xmlns="http://www.w3.org/2000/svg">
<path d="M48.1969 26.9137H43.3772M13.8565 26.9137H24.2992M43.3772 26.9137V49.0041M43.3772 26.9137H37.3526M37.3526 26.9137V18.0776C37.3526 16.303 35.914 14.8645 34.1394 14.8645H33.7378M37.3526 26.9137H24.2992M31.5287 21.8932L36.5493 2.41354M1.00391 17.2743L4.07753 31.4471C4.39437 32.9081 5.67697 33.9576 7.17178 33.979L11.2458 34.0372M23.6967 29.5244L27.1107 45.1885C27.5123 48.8033 22.291 49.0041 21.6885 46.3934L19.2688 36.5534C18.9197 35.1338 17.6563 34.1287 16.1945 34.1079L11.2458 34.0372M11.2458 34.0372V43.7832M4.01623 48.6024C4.01623 42.1762 18.2745 42.1762 18.2745 48.6024M24.2992 26.9137C27.5123 26.9137 27.5123 20.8891 24.2992 20.8891H18.0472C16.9393 20.8891 15.9096 20.3184 15.3225 19.3789L12.2499 14.4628C11.2458 12.4546 3.81541 11.2497 4.81951 18.4792M10.2417 1.00779C15.4592 0.807087 15.8647 8.83982 10.2417 8.83982C5.02033 8.83982 5.02033 1.20864 10.2417 1.00779Z" stroke="#1A202C" stroke-width="2.00821" stroke-linecap="round"/>
</svg>
