<svg width="120" height="120" viewBox="0 0 120 120" fill="none" xmlns="http://www.w3.org/2000/svg">
<path d="M92.5 72.5V80C92.5 84.8209 89.7132 89.0103 85.6318 91.1035L85.2324 91.2998C83.7141 92.0132 82.5 93.5653 82.5 95.5029V112.5H77.5V95.5029C77.5 93.5653 76.2859 92.0132 74.7676 91.2998C70.4697 89.2803 67.5 84.9766 67.5 80V72.5H92.5ZM52.5 72.5V80C52.5 84.8209 49.7132 89.0103 45.6318 91.1035L45.2324 91.2998C43.7141 92.0132 42.5 93.5653 42.5 95.5029V112.5H37.5V95.5029C37.5 93.5653 36.2859 92.0132 34.7676 91.2998C30.4697 89.2803 27.5 84.9766 27.5 80V72.5H52.5ZM80 7.5C81.3693 7.5 82.5 8.63071 82.5 10V28C82.5 30.4853 84.5147 32.5 87 32.5H92.5V57.5H67.5V32.5H73C75.4853 32.5 77.5 30.4853 77.5 28V10C77.5 8.63071 78.6307 7.5 80 7.5ZM40 7.5C41.3693 7.5 42.5 8.63071 42.5 10V28C42.5 30.4853 44.5147 32.5 47 32.5H52.5V57.5H27.5V32.5H33C35.4853 32.5 37.5 30.4853 37.5 28V10C37.5 8.63071 38.6307 7.5 40 7.5Z" stroke="black" stroke-width="5"/>
</svg>
