<svg width="111" height="79" viewBox="0 0 111 79" fill="none" xmlns="http://www.w3.org/2000/svg">
<path d="M16.8609 79C16.0728 79 15.4142 78.7332 14.8851 78.1997C14.356 77.6661 14.0896 77.0002 14.0859 76.2017V70.6052H11.1C7.9698 70.6052 5.33725 69.5288 3.20235 67.3761C1.06745 65.2233 0 62.5687 0 59.4123V31.4298C0 27.8444 1.17475 25.0834 3.52425 23.1471C5.87005 21.2069 8.3953 20.2369 11.1 20.2369V11.1986C11.1 8.04215 12.1675 5.38755 14.3024 3.23477C16.4373 1.08199 19.0698 0.00373099 22.2 0H88.8C91.9302 0 94.5628 1.07639 96.6977 3.22917C98.8326 5.38195 99.9 8.03655 99.9 11.193V20.2313C102.89 20.2313 105.487 21.2536 107.692 23.2982C109.897 25.3427 111 28.0533 111 31.4298V59.4123C111 62.5687 109.933 65.2233 107.798 67.3761C105.663 69.5288 103.03 70.6052 99.9 70.6052H96.9141V76.2017C96.9141 76.9964 96.6847 77.6605 96.2259 78.1941C95.7671 78.7276 95.1437 78.9962 94.3556 79C93.5675 79.0037 92.907 78.7351 92.3742 78.1941C91.8414 77.6531 91.575 76.989 91.575 76.2017V70.6052H19.6415V76.2017C19.6415 77.0002 19.3732 77.6661 18.8367 78.1997C18.3039 78.7332 17.6453 79 16.8609 79ZM11.1 65.0088H99.9C101.473 65.0088 102.792 64.4734 103.857 63.4026C104.923 62.3318 105.454 61.0017 105.45 59.4123V31.4298C105.45 29.8442 104.917 28.5159 103.852 27.4452C102.786 26.3744 101.469 25.8371 99.9 25.8334C98.3312 25.8296 97.014 26.3669 95.9484 27.4452C94.8828 28.5234 94.35 29.8516 94.35 31.4298V51.0175H16.65V31.4298C16.65 29.8442 16.1172 28.5159 15.0516 27.4452C13.986 26.3744 12.6688 25.8371 11.1 25.8334C9.5312 25.8296 8.214 26.3669 7.1484 27.4452C6.0828 28.5234 5.55 29.8516 5.55 31.4298V59.4123C5.55 60.9979 6.0828 62.328 7.1484 63.4026C8.214 64.4771 9.5312 65.0125 11.1 65.0088ZM22.2 45.4211H88.8V31.4298C88.8 29.4151 89.3087 27.5608 90.3262 25.8669C91.3437 24.1731 92.685 22.856 94.35 21.9158V11.1986C94.35 9.61289 93.8172 8.2828 92.7516 7.20827C91.686 6.13375 90.3688 5.59835 88.8 5.60208H22.2C20.6275 5.60208 19.3103 6.13748 18.2484 7.20827C17.1865 8.27906 16.6537 9.60916 16.65 11.1986V21.9158C18.315 22.856 19.6562 24.1731 20.6737 25.8669C21.6912 27.5608 22.2 29.4151 22.2 31.4298V45.4211Z" fill="black"/>
</svg>
